<svg width="192" height="192" viewBox="0 0 192 192" fill="none" xmlns="http://www.w3.org/2000/svg">
<path d="M120.659 97.886H110.023C109.614 95.614 108.852 93.614 107.739 91.886C106.625 90.159 105.261 88.693 103.648 87.489C102.034 86.284 100.227 85.375 98.227 84.761C96.25 84.148 94.148 83.841 91.92 83.841C87.898 83.841 84.295 84.852 81.114 86.875C77.955 88.898 75.455 91.864 73.614 95.773C71.795 99.682 70.886 104.455 70.886 110.091C70.886 115.773 71.795 120.568 73.614 124.477C75.455 128.386 77.966 131.341 81.148 133.341C84.33 135.341 87.909 136.341 91.886 136.341C94.091 136.341 96.182 136.045 98.159 135.455C100.159 134.841 101.966 133.943 103.58 132.761C105.193 131.58 106.557 130.136 107.67 128.432C108.807 126.705 109.591 124.727 110.023 122.5L120.659 122.534C120.091 125.966 118.989 129.125 117.352 132.011C115.739 134.875 113.659 137.352 111.114 139.443C108.591 141.511 105.705 143.114 102.455 144.25C99.205 145.386 95.659 145.955 91.818 145.955C85.773 145.955 80.386 144.523 75.659 141.659C70.932 138.773 67.205 134.648 64.477 129.284C61.773 123.92 60.42 117.523 60.42 110.091C60.42 102.636 61.784 96.239 64.511 90.898C67.239 85.534 70.966 81.42 75.693 78.557C80.42 75.67 85.795 74.227 91.818 74.227C95.523 74.227 98.977 74.761 102.182 75.83C105.409 76.875 108.307 78.42 110.875 80.466C113.443 82.489 115.568 84.966 117.25 87.898C118.932 90.807 120.068 94.136 120.659 97.886Z" fill="white"/>
</svg> 